<svg version="1.1" viewBox="0.0 0.0 960.0 720.0" fill="none" stroke="none" stroke-linecap="square" stroke-miterlimit="10" xmlns:xlink="http://www.w3.org/1999/xlink" xmlns="http://www.w3.org/2000/svg"><clipPath id="p.0"><path d="m0 0l960.0 0l0 720.0l-960.0 0l0 -720.0z" clip-rule="nonzero"/></clipPath><g clip-path="url(#p.0)"><path fill="#000000" fill-opacity="0.0" d="m0 0l960.0 0l0 720.0l-960.0 0z" fill-rule="evenodd"/><path fill="#000000" fill-opacity="0.0" d="m0 0l960.0 0l0 720.0l-960.0 0z" fill-rule="evenodd"/><path fill="#6d0ee7" d="m135.92111 339.67688l-5.484375 8.671875l-66.484375 -105.78125l10.84375 0l61.125 97.109375zm45.296875 69.03125l5.359375 -8.671875l33.9375 53.84375l-10.84375 0l-28.453125 -45.171875zm-34.453125 -86.125l-5.484375 8.546875l-55.640625 -88.5625l10.71875 0l50.40625 80.015625zm45.296875 68.90625l5.359375 -8.6875l44.796875 71.078125l-10.84375 0l-39.3125 -62.390625zm-34.453125 -86.265625l-5.359375 8.546875l-44.90625 -71.203125l10.84375 0l39.421875 62.65625zm45.4375 68.90625l5.359375 -8.671875l55.625 88.421875l-10.84375 0l-50.140625 -79.75zm-34.578125 -86.125l-5.359375 8.671875l-34.078125 -54.109375l10.84375 0l28.59375 45.4375zm45.296875 68.890625l5.359375 -8.671875l66.609375 105.65625l-10.859375 0l-61.109375 -96.984375zm54.734375 -114.328125l10.84375 0l-132.95312 211.3125l-10.84375 0l132.95312 -211.3125zm-21.5625 0l10.71875 0l-132.96875 211.3125l-10.84375 0l133.09375 -211.3125zm-21.828125 0l10.859375 0l-133.09375 211.3125l-10.84375 0l133.07812 -211.3125zm-21.6875 0l10.84375 0l-133.07812 211.3125l-10.859375 0l133.09375 -211.3125zm166.9043 106.171875l55.375 0q12.640625 0 21.375 -8.171875q8.75 -8.171875 8.75 -23.21875q0 -11.109375 -9.1875 -19.96875q-9.1875 -8.875 -20.9375 -8.875l-78.859375 0l0 165.375l-9.1875 0l0 -174.5625l88.046875 0q15.578125 0 27.4375 11.546875q11.875 11.546875 11.875 26.484375q0 18.375 -11.484375 29.484375q-11.484375 11.09375 -27.828125 11.09375l-55.375 0l0 -9.1875zm0 18.375l55.375 0q19.90625 0 34.203125 -13.96875q14.296875 -13.984375 14.296875 -35.796875q0 -18.765625 -14.625 -32.984375q-14.609375 -14.234375 -33.875 -14.234375l-97.234375 0l0 183.75l-9.1875 0l0 -192.9375l106.421875 0q15.1875 0 28.515625 7.796875q13.34375 7.78125 21.25 20.859375q7.921875 13.078125 7.921875 27.75q0 25.140625 -17.046875 42.046875q-17.03125 16.90625 -40.640625 16.90625l-55.375 0l0 -9.1875zm0 18.375l55.375 0q17.875 0 33.1875 -8.796875q15.3125 -8.8125 24.5 -24.5625q9.1875 -15.765625 9.1875 -34.78125q0 -17.234375 -9.125 -32.34375q-9.125 -15.125 -24.578125 -24.1875q-15.4375 -9.0625 -33.171875 -9.0625l-115.609375 0l0 202.125l-9.1875 0l0 -211.3125l124.796875 0q20.03125 0 37.640625 10.28125q17.609375 10.265625 28.015625 27.5625q10.40625 17.28125 10.40625 36.9375q0 22.703125 -9.765625 39.9375q-9.765625 17.21875 -26.484375 26.921875l23.734375 69.671875l-9.6875 0l-22.71875 -65.328125q-5.109375 2.03125 -7.78125 2.796875l21.3125 62.53125l-9.703125 0l-20.796875 -60.359375q-1.15625 0.265625 -8.171875 0.890625l19.78125 59.46875l-9.703125 0l-19.515625 -59.203125l-8.296875 0l18.625 59.203125l-9.6875 0l-18.765625 -59.203125l-33.8125 0l0 -9.1875zm-5.109375 68.390625l-9.1875 0l0 -156.1875l69.671875 0q8.546875 0 14.734375 5.8125q6.203125 5.796875 6.203125 13.84375q0 22.203125 -20.9375 22.203125l-55.375 0l0 -9.1875l55.375 0q5.484375 0 8.609375 -2.875q3.140625 -2.875 3.140625 -10.140625q0 -4.46875 -3.390625 -7.46875q-3.375 -3.0 -8.359375 -3.0l-60.484375 0l0 147.0zm202.12064 0l-9.1875 0l0 -183.75l9.1875 0l0 183.75zm-18.375 0l-9.1875 0l0 -183.75l9.1875 0l0 183.75zm-18.375 0l-9.1875 0l0 -183.75l9.1875 0l0 183.75zm55.125 -45.9375l87.921875 0l0 9.1875l-87.921875 0l0 9.1875l87.921875 0l0 9.1875l-87.921875 0l0 9.1875l87.921875 0l0 9.1875l-97.109375 0l0 -183.75l97.109375 0l0 9.1875l-87.921875 0l0 9.1875l87.921875 0l0 9.1875l-87.921875 0l0 9.1875l87.921875 0l0 9.1875l-87.921875 0l0 22.84375l82.8125 0l0 9.1875l-82.8125 0l0 9.1875l82.8125 0l0 9.1875l-82.8125 0l0 9.1875l82.8125 0l0 9.1875l-82.8125 0l0 23.09375zm239.25696 -47.21875l9.1875 0l0 93.15625q-20.40625 9.1875 -42.234375 9.1875q-20.546875 0 -39.25 -8.046875q-18.6875 -8.03125 -32.21875 -21.546875q-13.515625 -13.53125 -21.5625 -32.21875q-8.03125 -18.703125 -8.03125 -39.25q0 -20.546875 8.03125 -39.234375q8.046875 -18.6875 21.5625 -32.21875q13.53125 -13.53125 32.21875 -21.5625q18.703125 -8.046875 39.25 -8.046875q23.484375 0 44.15625 10.15625q20.671875 10.140625 34.828125 27.875l-7.40625 5.484375q-12.875 -15.953125 -31.578125 -25.140625q-18.6875 -9.1875 -40.0 -9.1875q-18.625 0 -35.671875 7.28125q-17.03125 7.265625 -29.34375 19.578125q-12.3125 12.3125 -19.59375 29.359375q-7.265625 17.03125 -7.265625 35.65625q0 18.625 7.265625 35.671875q7.28125 17.03125 19.59375 29.34375q12.3125 12.3125 29.34375 19.59375q17.046875 7.265625 35.671875 7.265625q17.234375 0 33.046875 -6.125l0 -9.4375q-15.953125 6.375 -33.046875 6.375q-16.84375 0 -32.15625 -6.5625q-15.3125 -6.578125 -26.359375 -17.609375q-11.03125 -11.046875 -17.609375 -26.359375q-6.5625 -15.3125 -6.5625 -32.15625q0 -16.84375 6.5625 -32.15625q6.578125 -15.3125 17.609375 -26.34375q11.046875 -11.046875 26.359375 -17.609375q15.3125 -6.578125 32.15625 -6.578125q19.265625 0 36.171875 8.296875q16.90625 8.296875 28.515625 22.84375l-7.140625 5.734375q-10.328125 -12.875 -25.390625 -20.28125q-15.0625 -7.40625 -32.15625 -7.40625q-14.921875 0 -28.515625 5.8125q-13.59375 5.796875 -23.484375 15.6875q-9.890625 9.890625 -15.703125 23.484375q-5.796875 13.59375 -5.796875 28.53125q0 14.921875 5.796875 28.515625q5.8125 13.578125 15.703125 23.46875q9.890625 9.890625 23.484375 15.703125q13.59375 5.796875 28.515625 5.796875q17.609375 0 33.046875 -7.140625l0 -9.453125q-15.4375 7.40625 -33.046875 7.40625q-17.484375 0 -32.28125 -8.609375q-14.796875 -8.609375 -23.421875 -23.40625q-8.609375 -14.8125 -8.609375 -32.296875q0 -17.484375 8.609375 -32.28125q8.625 -14.796875 23.421875 -23.40625q14.796875 -8.625 32.28125 -8.625q14.9375 0 28.140625 6.453125q13.203125 6.4375 22.140625 17.796875l-7.28125 5.609375q-7.65625 -9.6875 -18.953125 -15.171875q-11.28125 -5.5 -24.046875 -5.5q-22.84375 0 -38.984375 16.203125q-16.140625 16.203125 -16.140625 38.921875q0 22.71875 16.140625 38.921875q16.140625 16.203125 38.984375 16.203125q17.859375 0 33.046875 -8.671875l0 -9.3125q-14.921875 8.796875 -33.046875 8.796875q-19.015625 0 -32.484375 -13.453125q-13.453125 -13.46875 -13.453125 -32.484375q0 -19.015625 13.453125 -32.46875q13.46875 -13.46875 32.484375 -13.46875q10.71875 0 20.15625 4.65625q9.453125 4.65625 15.828125 12.703125l-7.40625 5.609375q-11.09375 -13.78125 -28.578125 -13.78125q-15.1875 0 -25.96875 10.78125q-10.78125 10.78125 -10.78125 25.96875q0 15.1875 10.78125 25.96875q10.78125 10.78125 25.96875 10.78125q19.53125 0 33.046875 -10.84375l0 -27.1875zm55.125 0l9.1875 0l0 93.15625l-9.1875 0l0 -93.15625zm-18.375 0l9.1875 0l0 93.15625l-9.1875 0l0 -93.15625zm-18.375 0l9.1875 0l0 93.15625l-9.1875 0l0 -93.15625z" fill-rule="nonzero"/></g></svg>